<svg xmlns="http://www.w3.org/2000/svg" viewBox="0 0 50.82 51.27">
  <g fill="black">
    <path d="M12.19,51.27c-2.31,0-4.38-.55-6.21-1.66-1.83-1.11-3.29-2.58-4.36-4.41-1.08-1.83-1.61-3.84-1.61-6.02,0-2.31.52-4.38,1.57-6.21,1.04-1.83,2.47-3.27,4.27-4.32,1.83-1.08,3.89-1.61,6.17-1.61,1.93,0,3.7.46,5.31,1.38,1.64.92,2.94,2.15,3.89,3.7.98,1.52,1.47,3.18,1.47,4.98l-2.09-1.52.05-9.41h3.79v13.01c0,2.28-.54,4.33-1.61,6.17-1.08,1.8-2.55,3.24-4.41,4.32-1.83,1.08-3.9,1.61-6.21,1.61Z"></path>
    <path d="M12.19,25.11c-2.31,0-4.38-.55-6.21-1.66-1.83-1.11-3.29-2.58-4.36-4.41-1.08-1.83-1.61-3.84-1.61-6.02,0-2.31.52-4.38,1.57-6.21,1.04-1.83,2.47-3.27,4.27-4.32,1.83-1.08,3.89-1.61,6.17-1.61,1.93,0,3.7.46,5.31,1.38,1.64.92,2.94,2.15,3.89,3.7.98,1.52,1.47,3.18,1.47,4.98l-2.09-1.52.05-9.41h3.79v13.01c0,2.28-.54,4.33-1.61,6.17-1.08,1.8-2.55,3.24-4.41,4.32-1.83,1.08-3.9,1.61-6.21,1.61Z"></path>
    <path d="M38.64,51.27c-2.31,0-4.4-.55-6.26-1.66-1.83-1.11-3.29-2.58-4.36-4.41-1.07-1.83-1.61-3.86-1.61-6.07s.54-4.27,1.61-6.07c1.08-1.83,2.55-3.29,4.41-4.36,1.87-1.08,3.94-1.61,6.21-1.61s4.41.54,6.21,1.61c1.83,1.07,3.29,2.53,4.36,4.36,1.08,1.83,1.61,3.86,1.61,6.07s-.54,4.24-1.61,6.07c-1.08,1.83-2.53,3.3-4.36,4.41-1.83,1.11-3.9,1.66-6.21,1.66Z"></path>
    <path d="M38.27,25.06c-2.21,0-4.45-.55-6.22-1.66-1.74-1.11-3.11-2.58-4.13-4.41-1.01-1.83-1.52-3.86-1.52-6.07s.54-4.24,1.61-6.07c1.08-1.83,2.53-3.29,4.36-4.36,1.83-1.08,3.9-1.61,6.21-1.61s4.38.54,6.21,1.61c1.87,1.04,3.34,2.48,4.41,4.32,1.08,1.8,1.61,3.84,1.61,6.12v11.62h-3.6v-8.73l1.38-1.52c0,1.99-.46,4.43-1.38,6.08-.62,1.49-3.48,4.69-8.95,4.69Z"></path>
  </g>
</svg>